<?xml version="1.0" encoding="UTF-8" standalone="no"?>
<!DOCTYPE svg PUBLIC "-//W3C//DTD SVG 1.1//EN" "http://www.w3.org/Graphics/SVG/1.1/DTD/svg11.dtd">
<svg width="100%" height="100%" viewBox="0 0 500 369" version="1.1" xmlns="http://www.w3.org/2000/svg" xmlns:xlink="http://www.w3.org/1999/xlink" xml:space="preserve" xmlns:serif="http://www.serif.com/" style="fill-rule:evenodd;clip-rule:evenodd;stroke-linejoin:round;stroke-miterlimit:2;">
    <g id="Artboard1" transform="matrix(1,0,0,1,0,-95.4907)">
        <rect x="0" y="95.491" width="500" height="368.037" style="fill:none;"/>
        <g id="Background-Complete" serif:id="Background Complete" transform="matrix(1,0,0,1,0,0.490716)">
            <g transform="matrix(-1,0,0,1,118.706,142.667)">
                <rect x="46.113" y="173.072" width="26.48" height="11.189" style="fill:rgb(236,236,236);"/>
            </g>
            <g transform="matrix(-1,0,0,1,31.3408,329.848)">
                <rect x="-26.481" y="0" width="26.481" height="11.19" style="fill:rgb(236,236,236);"/>
            </g>
            <g transform="matrix(-1,0,0,1,910.837,170.885)">
                <rect x="442.178" y="158.963" width="26.481" height="11.189" style="fill:rgb(236,236,236);"/>
            </g>
            <g transform="matrix(-1,0,0,1,271.957,-136.595)">
                <rect x="49.915" y="344.188" width="172.127" height="10.219" style="fill:rgb(236,236,236);"/>
            </g>
            <g transform="matrix(-1,0,0,1,136.185,-92.563)">
                <rect x="62.98" y="310.38" width="10.225" height="33.803" style="fill:rgb(236,236,236);"/>
            </g>
            <g transform="matrix(1,0,0,1,0,-115.92)">
                <rect x="62.979" y="333.736" width="10.225" height="10.448" style="fill:rgb(220,220,220);"/>
            </g>
            <g transform="matrix(-1,0,0,1,407.739,-92.563)">
                <rect x="198.757" y="310.38" width="10.225" height="33.803" style="fill:rgb(236,236,236);"/>
            </g>
            <g transform="matrix(-1,0,0,1,407.739,-115.918)">
                <rect x="198.757" y="333.735" width="10.225" height="10.448" style="fill:rgb(220,220,220);"/>
            </g>
            <g transform="matrix(1,0,0,1,0,-211.949)">
                <rect x="93.418" y="354.406" width="16.403" height="65.137" style="fill:rgb(200,200,200);"/>
            </g>
            <g transform="matrix(1,0,0,1,0,-276.894)">
                <rect x="93.418" y="415.868" width="16.403" height="7.158" style="fill:rgb(220,220,220);"/>
            </g>
            <g transform="matrix(1,0,0,1,0,-248.738)">
                <rect x="93.418" y="404.041" width="16.403" height="2.656" style="fill:rgb(220,220,220);"/>
            </g>
            <g transform="matrix(1,0,0,1,0,-171.058)">
                <rect x="93.418" y="362.95" width="18.447" height="7.158" style="fill:rgb(220,220,220);"/>
            </g>
            <g transform="matrix(1,0,0,1,0,-222.796)">
                <rect x="109.822" y="354.406" width="11.464" height="75.984" style="fill:rgb(220,220,220);"/>
            </g>
            <g transform="matrix(1,0,0,1,0,-255.267)">
                <rect x="112.064" y="394.021" width="6.879" height="29.225" style="fill:rgb(236,236,236);"/>
            </g>
            <g transform="matrix(-0.711214,-0.702976,-0.702976,0.711214,177.084,138.767)">
                <rect x="-60.983" y="25.052" width="75.984" height="11.464" style="fill:rgb(200,200,200);"/>
            </g>
            <g transform="matrix(-0.711218,-0.702972,-0.702972,0.711218,179.037,166.046)">
                <rect x="-22.587" y="9.279" width="29.225" height="6.88" style="fill:rgb(220,220,220);"/>
            </g>
            <g transform="matrix(1,0,0,1,0,-204.502)">
                <rect x="121.278" y="354.393" width="19.468" height="57.716" style="fill:rgb(168,168,168);"/>
            </g>
            <g transform="matrix(1,0,0,1,0,-164.403)">
                <rect x="121.278" y="360.512" width="19.468" height="5.379" style="fill:rgb(200,200,200);"/>
            </g>
            <g transform="matrix(1,0,0,1,0,-178.928)">
                <rect x="121.278" y="369.421" width="19.468" height="2.086" style="fill:rgb(200,200,200);"/>
            </g>
            <g transform="matrix(1,0,0,1,0,-201.026)">
                <rect x="79.97" y="354.393" width="13.448" height="54.24" style="fill:rgb(168,168,168);"/>
            </g>
            <g transform="matrix(1,0,0,1,0,-163.34)">
                <rect x="79.97" y="360.142" width="13.448" height="5.056" style="fill:rgb(200,200,200);"/>
            </g>
            <g transform="matrix(1,0,0,1,0,-227.85)">
                <rect x="79.97" y="392.397" width="13.448" height="5.056" style="fill:rgb(200,200,200);"/>
            </g>
            <g transform="matrix(1,0,0,1,0,-213.91)">
                <rect x="79.97" y="386.975" width="13.448" height="1.96" style="fill:rgb(200,200,200);"/>
            </g>
        </g>
        <g transform="matrix(1,0,0,1,145.658,420.998)">
            <g id="Table">
                <path d="M0,-0.666L-52.171,-0.578L-104.341,-0.334L-52.171,-0.088L0,-0.001L104.342,0.166L208.684,-0.003L260.855,-0.091L313.025,-0.334L260.855,-0.577L208.684,-0.665L104.342,-0.832L0,-0.666Z" style="fill:rgb(26,46,53);fill-rule:nonzero;"/>
            </g>
        </g>
        <g id="Character" transform="matrix(1,0,0,1,0,0.490716)">
            <g transform="matrix(1,0,0,1,227.365,393.726)">
                <path d="M0,-96.377C5.093,-60.705 17.633,-15.028 29.449,-5.034C38.98,3.03 91.093,20.204 94.031,20.773C101.311,22.133 120.171,-28.512 112.737,-31.259C103.371,-34.72 57.915,-39.971 55.546,-42.852C53.09,-45.861 38.393,-69.716 21.802,-97.314C10.355,-116.384 -3.161,-118.51 0,-96.377" style="fill:rgb(222,165,159);fill-rule:nonzero;"/>
            </g>
            <g transform="matrix(1,0,0,1,315.742,380.921)">
                <path d="M0,30.233C0.838,30.75 12.73,38.04 20.222,40.911C25.811,43.053 42.064,48.789 45.034,42.87C47.064,38.836 37.903,34.337 31.496,31.012C28.121,29.261 24.118,25.237 25.338,23.075C27.472,19.295 36.145,24.001 41.776,27.94C52.668,35.556 66.915,48.816 74.398,43.595C77.225,41.621 74.491,37.364 70.329,33.065C77.233,38.248 84.691,42.65 87.918,40.581C89.77,39.405 90.003,37.594 89.208,35.439C91.397,36.36 93.397,36.384 94.907,35.035C97.485,32.755 96.639,28.999 94.361,25.029C95.2,25.012 95.982,24.652 96.633,23.796C102.293,16.569 79.03,-7.503 70.519,-10.289C45.48,-18.511 18.115,-18.583 18.115,-18.583C7.405,-11.408 -0.019,30.214 0,30.233" style="fill:rgb(222,165,159);fill-rule:nonzero;"/>
            </g>
            <g transform="matrix(1,0,0,1,355.29,414.806)">
                <path d="M0,-24.011C5.937,-22.563 11.671,-19.815 16.489,-16.018C22.606,-11.198 26.482,-5.833 31.493,-0.337C31.625,-0.194 31.404,0.016 31.272,-0.129C28.884,-2.741 18.912,-12.649 16.312,-14.929C11.547,-19.107 6.093,-22.217 -0.031,-23.909C-0.098,-23.927 -0.066,-24.027 0,-24.011" style="fill:rgb(26,46,53);fill-rule:nonzero;"/>
            </g>
            <g transform="matrix(1,0,0,1,360.962,416.094)">
                <path d="M0,-35.739C6.561,-33.339 13.285,-30.903 19.25,-27.203C25.778,-23.154 30.639,-17.039 35.429,-11.144C38.305,-7.604 41.107,-4.006 43.818,-0.338C43.933,-0.183 43.722,0.027 43.598,-0.129C38.747,-6.21 33.715,-12.151 28.501,-17.925C23.596,-23.356 17.979,-27.67 11.377,-30.842C7.657,-32.629 3.809,-34.128 -0.035,-35.623C-0.107,-35.651 -0.073,-35.766 0,-35.739" style="fill:rgb(26,46,53);fill-rule:nonzero;"/>
            </g>
            <g transform="matrix(1,0,0,1,368.933,406.04)">
                <path d="M0,-34.563C6.411,-32.675 12.007,-31.05 17.489,-27.069C24.748,-21.797 31.476,-13.378 33.834,-10.396C36.438,-7.101 38.93,-3.723 41.371,-0.306C41.471,-0.167 41.23,0.009 41.127,-0.128C35.522,-7.623 29.409,-14.806 22.883,-21.512C19.764,-24.717 16.32,-27.57 12.363,-29.684C8.45,-31.775 4.184,-33.131 -0.014,-34.52C-0.041,-34.529 -0.028,-34.572 0,-34.563" style="fill:rgb(26,46,53);fill-rule:nonzero;"/>
            </g>
            <g transform="matrix(0.872509,-0.488599,-0.488599,-0.872509,261.439,358.324)">
                <path d="M-20.501,12.081L24.785,12.081C24.785,12.081 24.721,43.449 21.023,69.122C17.324,94.795 6.038,87.542 -2.903,66.948C-11.844,46.354 -20.501,12.081 -20.501,12.081" style="fill:rgb(132,190,0);fill-rule:nonzero;"/>
            </g>
            <g transform="matrix(-0.497071,-0.86771,-0.86771,0.497071,238.385,329.978)">
                <path d="M-16.42,-28.342C-15.751,-15.746 -15.449,-3.044 -16.091,9.559C-16.1,9.747 -16.407,9.737 -16.42,9.552C-17.298,-3.037 -17.216,-15.745 -16.783,-28.35C-16.775,-28.556 -16.431,-28.547 -16.42,-28.342" style="fill:rgb(26,46,53);fill-rule:nonzero;"/>
            </g>
            <g opacity="0.1">
                <g transform="matrix(-0.872469,0.488669,0.488669,0.872469,216.843,309.24)">
                    <path d="M-31.709,52.535L5.576,52.535C5.576,52.535 -3.084,18.267 -12.03,-2.328C-17.678,-15.36 -24.276,-23.047 -29.296,-20.429L-31.709,52.535Z" style="fill-rule:nonzero;"/>
                </g>
            </g>
            <g transform="matrix(1,0,0,1,126.503,265.475)">
                <path d="M0,154.229L149.528,154.229C151.404,152.827 134.089,51.513 112.075,16.538C107.954,9.99 88.215,0 72.768,11.844C26.137,47.6 -1.75,151.987 0,154.229" style="fill:rgb(132,190,0);fill-rule:nonzero;"/>
            </g>
            <g transform="matrix(1,0,0,1,302.234,405.009)">
                <path d="M0,-60.778C0,-60.778 8.291,-65.178 15.443,-67.021C22.596,-68.864 38.29,-71.712 41.1,-72.874L45.842,-73.048L15.132,7.982L-26.944,16.625L-96.931,-0.08L-71.966,-77.162L-67.145,-77.403C-67.145,-77.403 -58.254,-74.977 -50.906,-73.606C-43.558,-72.236 -18.157,-71.113 0,-60.778" style="fill:white;fill-rule:nonzero;"/>
            </g>
            <g transform="matrix(0.331882,-0.943321,-0.943321,-0.331882,301.161,372.371)">
                <path d="M-59.061,13.257L23.71,13.257L18.235,84.761L-65.58,82.851L-59.061,13.257Z" style="fill:rgb(55,90,100);fill-rule:nonzero;"/>
            </g>
            <g transform="matrix(0.998511,0.0545435,0.0545435,-0.998511,266.968,422.6)">
                <path d="M2.142,-0.969L12.244,-0.969L35.519,78.491L25.313,78.492L2.142,-0.969Z" style="fill:rgb(43,69,78);fill-rule:nonzero;"/>
            </g>
            <g transform="matrix(0.333022,-0.942919,-0.942919,-0.333022,346.647,426.692)">
                <path d="M-20.164,64.471L62.635,64.471L91.143,28.506L2.813,30.857L-20.164,64.471Z" style="fill:rgb(55,90,100);fill-rule:nonzero;"/>
            </g>
            <g transform="matrix(1,0,0,1,195.009,418.366)">
                <path d="M0,-136.87C-35.522,-96.581 -80.584,-21.539 -72.794,-6.683C-62.922,12.146 5.314,8.662 21.242,4.956C28.033,3.376 4.551,-55.486 -2.743,-53.948C-9.099,-52.607 -14.587,-51.269 -14.809,-52.147C-15.037,-53.053 3.952,-81.078 15.51,-121.477C23.388,-149.016 7.534,-145.415 0,-136.87" style="fill:rgb(222,165,159);fill-rule:nonzero;"/>
            </g>
            <g transform="matrix(1,0,0,1,160.294,370.166)">
                <path d="M0,22.282C0,22.282 2.647,19.568 14.287,2.971C22.337,-8.505 49.28,-31.316 87.562,-22.006C102.23,-18.439 106.133,-6.59 90.236,-7.59C79.041,-8.294 71.342,-9.743 67.625,-8.949C67.625,-8.949 80.364,2.567 79.196,12.448C78.674,16.864 76.967,28.884 74.304,38.053C74.304,38.053 72.151,38.009 69.431,37.566C69.431,37.566 67.551,49.96 53.947,53.598L0,22.282Z" style="fill:rgb(222,165,159);fill-rule:nonzero;"/>
            </g>
            <g transform="matrix(1,0,0,1,184.013,414.782)">
                <path d="M0,-51.371C7.134,-53.128 22.317,-56.599 35.725,-55.118C50.616,-53.474 78.86,-46.292 77.533,-35.31C76.56,-27.26 65.535,-29.054 65.535,-29.054C65.535,-29.054 76.583,-23.624 74.113,-16.543C71.862,-10.091 63.417,-11.989 63.417,-11.989C63.417,-11.989 69.553,-7.544 66.188,-1.746C62.14,5.228 49.945,-5.233 39.742,-1.713C37.451,-0.923 0,-51.371 0,-51.371" style="fill:rgb(222,165,159);fill-rule:nonzero;"/>
            </g>
            <g transform="matrix(-0.2994,0.954128,0.954128,0.2994,242.485,365.448)">
                <path d="M17.335,-22.975C14.718,-16.481 12.558,-0.204 16.996,12.61C17.098,12.902 17.37,12.981 17.335,12.697C15.446,-2.452 16.612,-16.861 17.473,-22.948C17.485,-23.029 17.364,-23.047 17.335,-22.975" style="fill:rgb(26,46,53);fill-rule:nonzero;"/>
            </g>
            <g transform="matrix(-0.35578,0.93457,0.93457,0.35578,242.86,383.22)">
                <path d="M16.729,-24.35C14.702,-18.625 12.221,-1.869 16.391,11.235C16.484,11.528 16.759,11.606 16.729,11.32C15.046,-4.554 16.007,-18.237 16.868,-24.323C16.879,-24.405 16.755,-24.424 16.729,-24.35" style="fill:rgb(26,46,53);fill-rule:nonzero;"/>
            </g>
            <g transform="matrix(0.505451,0.862855,0.862855,-0.505451,149.476,366.855)">
                <path d="M15.509,-8.875C12.891,-2.381 10.732,13.895 15.17,26.71C15.27,27 15.543,27.08 15.509,26.796C13.619,11.647 14.786,-2.762 15.646,-8.848C15.658,-8.929 15.538,-8.948 15.509,-8.875" style="fill:rgb(26,46,53);fill-rule:nonzero;"/>
            </g>
            <g transform="matrix(0.934579,0.355756,0.355756,-0.934579,146.696,318.102)">
                <path d="M10.61,-9.961L55.897,-9.961C55.897,-9.961 55.833,21.406 52.135,47.079C48.437,72.753 37.15,65.498 28.208,44.905C19.268,24.311 10.61,-9.961 10.61,-9.961" style="fill:rgb(132,190,0);fill-rule:nonzero;"/>
            </g>
            <g transform="matrix(1,0,0,1,208.497,343.441)">
                <path d="M0,-28.912C0.045,-29.019 -0.108,-29.099 -0.164,-28.994C-0.901,-27.619 -1.625,-26.237 -2.356,-24.858C-1.592,-27.662 -0.882,-30.48 -0.241,-33.324C-0.221,-33.413 -0.365,-33.467 -0.396,-33.377C-2.543,-27.264 -4.659,-21.146 -6.706,-14.998C-8.753,-8.849 -11.087,-2.788 -13.071,3.382C-14.29,3.136 -14.943,2.942 -15.854,2.787C-16.062,2.752 -16.198,2.985 -16.004,3.084C-14.858,3.665 -12.601,4.555 -12.531,4.401C-9.847,-1.499 -7.673,-8.117 -5.586,-14.248C-4.558,-17.267 -3.623,-20.306 -2.762,-23.365C-1.756,-25.171 -0.8,-26.999 0,-28.912" style="fill:rgb(26,46,53);fill-rule:nonzero;"/>
            </g>
            <g transform="matrix(0.346677,-0.937984,-0.937984,-0.346677,190.311,318.188)">
                <path d="M-17.747,-12.383C-17.08,0.212 -16.777,12.915 -17.419,25.519C-17.428,25.707 -17.735,25.696 -17.747,25.511C-18.625,12.922 -18.544,0.215 -18.11,-12.391C-18.102,-12.597 -17.759,-12.587 -17.747,-12.383" style="fill:rgb(26,46,53);fill-rule:nonzero;"/>
            </g>
            <g transform="matrix(1,0,0,1,207.995,262.819)">
                <path d="M0,16.385C0.019,18.828 7.698,36.393 18.418,38.288C21.911,38.9 26.1,19.987 26.1,19.987L26.729,18.66L35.51,0.099L12.993,-22.515C12.993,-22.515 0.006,15.35 0,16.385" style="fill:rgb(222,165,159);fill-rule:nonzero;"/>
            </g>
            <g transform="matrix(1,0,0,1,243.5,267.5)">
                <path d="M0,-4.577L-8.784,13.973L-9.409,15.311C-9.409,15.311 -10.173,18.733 -11.309,22.617C-25.279,17.206 -29.454,4.852 -30.647,-3.294C-26.962,-14.247 -22.512,-27.194 -22.512,-27.194L0,-4.577Z" style="fill:rgb(26,46,53);fill-rule:nonzero;"/>
            </g>
            <g transform="matrix(0.0537072,-0.998557,-0.998557,-0.0537072,251.388,190.184)">
                <path d="M-41.876,-30.221C-85.812,-27.946 -89.412,-1.373 -88.909,8.101C-88.454,16.701 -85.813,45.928 -41.876,48.204C2.062,50.48 14.893,29.331 14.893,9.608C14.894,-10.118 2.062,-32.498 -41.876,-30.221" style="fill:rgb(222,165,159);fill-rule:nonzero;"/>
            </g>
            <g transform="matrix(1,0,0,1,268.157,249.909)">
                <path d="M0,-9.717C4.825,-8.987 3.011,0.612 -1.461,-0.064C-5.861,-0.73 -4.046,-10.329 0,-9.717" style="fill:rgb(26,46,53);fill-rule:nonzero;"/>
            </g>
            <g transform="matrix(1,0,0,1,245.845,246.484)">
                <path d="M0,-9.509C-4.794,-10.423 -6.27,-0.766 -1.828,0.08C2.544,0.914 4.02,-8.743 0,-9.509" style="fill:rgb(26,46,53);fill-rule:nonzero;"/>
            </g>
            <g transform="matrix(1,0,0,1,272.391,229.432)">
                <path d="M0,5.263C-0.995,4.965 -1.864,4.524 -2.818,4.127C-3.895,3.679 -4.798,3.433 -5.471,2.419C-5.832,1.876 -5.63,0.939 -5.135,0.539C-3.982,-0.394 -2.527,-0.173 -1.21,0.313C0.221,0.841 1.188,1.614 1.962,2.923C2.713,4.193 1.313,5.657 0,5.263" style="fill:rgb(26,46,53);fill-rule:nonzero;"/>
            </g>
            <g transform="matrix(1,0,0,1,242.712,226.704)">
                <path d="M0,4.175C1.038,4.237 2.005,4.121 3.037,4.076C4.202,4.025 5.134,4.105 6.116,3.385C6.641,2.999 6.773,2.049 6.446,1.503C5.685,0.231 4.242,-0.062 2.837,-0.058C1.313,-0.054 0.139,0.34 -1.038,1.303C-2.179,2.238 -1.368,4.092 0,4.175" style="fill:rgb(26,46,53);fill-rule:nonzero;"/>
            </g>
            <g transform="matrix(1,0,0,1,242.353,266.981)">
                <path d="M0,-3.629C0.533,-2.779 1.003,-1.673 2.038,-1.329C3.032,-1 4.329,-1.171 5.345,-1.308C5.446,-1.321 5.516,-1.201 5.436,-1.128C4.41,-0.192 2.651,0.124 1.357,-0.438C0.095,-0.985 -0.283,-2.282 -0.312,-3.565C-0.316,-3.744 -0.078,-3.753 0,-3.629" style="fill:rgb(26,46,53);fill-rule:nonzero;"/>
            </g>
            <g transform="matrix(1,0,0,1,256.608,244.23)">
                <path d="M0,10.701C0,10.701 -0.19,15.214 -0.566,17.291C-0.603,17.485 -1.121,17.486 -1.834,17.399C-1.869,17.404 -1.891,17.414 -1.915,17.387C-5.686,17.295 -9.149,15.359 -10.834,11.962C-10.941,11.733 -10.639,11.567 -10.474,11.73C-8.101,14.237 -5.169,15.304 -1.927,15.947C-1.676,15.399 -1.842,8.129 -1.526,8.243C-0.187,8.727 2.134,9.78 2.995,10.166C3.187,7.237 3.313,-1.105 3.668,-6.438C3.69,-6.772 4.211,-6.785 4.234,-6.474C4.861,1.725 5.062,6.007 4.803,12.327C4.782,12.82 0.767,11.205 0,10.701" style="fill:rgb(26,46,53);fill-rule:nonzero;"/>
            </g>
            <g transform="matrix(1,0,0,1,195.727,167.616)">
                <path d="M0,63.993C12.265,68.539 23.175,55.523 23.763,42.651C23.763,42.651 55.765,56.82 65.19,30.557C65.19,30.557 68.335,44.076 83.32,48.896L84.156,59.84C87.86,59.853 94.339,51.211 88.214,41.149C88.214,41.149 91.54,27.656 84.061,16.783C76.582,5.909 65.281,8.306 65.281,8.306C65.281,8.306 59.382,-0.5 46.654,-2.523C33.927,-4.546 25.603,5.161 25.603,5.161C25.603,5.161 8.184,3.482 1.944,14.376C-4.296,25.269 -0.543,34.898 -0.543,34.898C-0.543,34.898 -6.029,38.288 -6.856,48.902C-7.388,55.728 -3.681,62.629 0,63.993" style="fill:rgb(26,46,53);fill-rule:nonzero;"/>
            </g>
            <g transform="matrix(1,0,0,1,260.875,218.205)">
                <path d="M0,-22.62C-0.418,-20.374 -0.974,-18.161 -1.838,-16.071C-2.597,-13.943 -3.668,-11.959 -4.896,-10.11C-7.423,-6.462 -11.123,-3.709 -15.415,-2.775C-19.685,-1.523 -24.229,-2.46 -28.592,-3.288C-30.731,-3.986 -32.936,-4.537 -35.048,-5.359C-37.152,-6.212 -39.239,-7.118 -41.385,-7.938C-39.409,-6.796 -37.375,-5.741 -35.355,-4.633C-33.28,-3.653 -31.072,-2.953 -28.922,-2.097C-24.475,-0.989 -19.724,0 -15.038,-1.214C-10.404,-2.347 -6.302,-5.419 -3.866,-9.436C-1.443,-13.456 -0.182,-18.051 0,-22.62" style="fill:rgb(26,46,53);fill-rule:nonzero;"/>
            </g>
            <g transform="matrix(1,0,0,1,221.329,200.987)">
                <path d="M0,-28.21C-4.194,-29.4 -8.654,-29.737 -13.053,-29.143C-17.441,-28.57 -21.813,-26.626 -24.896,-23.212C-26.364,-21.45 -27.488,-19.483 -28.308,-17.412C-29.192,-15.361 -29.73,-13.141 -29.868,-10.908C-30.188,-6.446 -28.892,-1.876 -26.146,1.527C-28.318,-2.232 -29.18,-6.629 -28.638,-10.793C-28.086,-14.907 -26.387,-19.064 -23.69,-22.152C-22.344,-23.718 -20.667,-24.976 -18.82,-25.945C-16.937,-26.844 -14.934,-27.522 -12.846,-27.929C-8.676,-28.748 -4.307,-28.749 0,-28.21" style="fill:rgb(26,46,53);fill-rule:nonzero;"/>
            </g>
            <g transform="matrix(1,0,0,1,261.008,199.851)">
                <path d="M0,-23.929C3.515,-24.126 7.026,-23.845 10.338,-22.955C13.64,-22.057 16.729,-20.471 19.122,-18.118C21.521,-15.768 23.124,-12.695 24.106,-9.412C25.055,-6.113 25.451,-2.617 25.397,0.904C26.116,-2.563 26.043,-6.194 25.305,-9.718C24.564,-13.243 22.87,-16.649 20.247,-19.264C17.594,-21.825 14.163,-23.505 10.618,-24.153C7.078,-24.833 3.434,-24.784 0,-23.929" style="fill:rgb(26,46,53);fill-rule:nonzero;"/>
            </g>
            <g transform="matrix(1,0,0,1,273.514,196.58)">
                <path d="M0,19.482C-3.311,17.046 -6.271,14.327 -8.507,11.085C-9.672,9.497 -10.514,7.717 -11.214,5.878C-11.966,4.032 -12.197,2.045 -12.53,0C-12.866,2.021 -12.945,4.173 -12.4,6.225C-11.94,8.287 -11.05,10.27 -9.827,11.999C-8.602,13.724 -7.143,15.277 -5.461,16.526C-3.79,17.779 -1.978,18.85 0,19.482" style="fill:rgb(26,46,53);fill-rule:nonzero;"/>
            </g>
            <g transform="matrix(0.433328,-0.901237,-0.901237,-0.433328,227.469,241.664)">
                <path d="M-0.639,-0.401C-1.03,-0.402 -1.347,-0.084 -1.347,0.306C-1.347,0.698 -1.03,1.015 -0.639,1.015C-0.247,1.015 0.07,0.698 0.07,0.308C0.07,-0.084 -0.247,-0.401 -0.639,-0.401" style="fill:rgb(222,165,159);fill-rule:nonzero;"/>
            </g>
            <g transform="matrix(0.433328,-0.901237,-0.901237,-0.433328,241.153,247.457)">
                <path d="M-0.639,-0.402C-1.031,-0.402 -1.347,-0.084 -1.348,0.306C-1.348,0.698 -1.03,1.016 -0.639,1.015C-0.247,1.015 0.069,0.698 0.069,0.308C0.069,-0.084 -0.248,-0.401 -0.639,-0.402" style="fill:rgb(222,165,159);fill-rule:nonzero;"/>
            </g>
            <g transform="matrix(0.433328,-0.901237,-0.901237,-0.433328,234.184,249.892)">
                <path d="M-0.639,-0.402C-1.031,-0.402 -1.347,-0.085 -1.348,0.307C-1.347,0.698 -1.031,1.015 -0.639,1.015C-0.248,1.014 0.069,0.699 0.069,0.307C0.07,-0.085 -0.248,-0.402 -0.639,-0.402" style="fill:rgb(222,165,159);fill-rule:nonzero;"/>
            </g>
            <g transform="matrix(0.433328,-0.901237,-0.901237,-0.433328,230.364,236.552)">
                <path d="M-0.639,-0.401C-1.03,-0.402 -1.347,-0.084 -1.347,0.306C-1.347,0.698 -1.03,1.015 -0.639,1.015C-0.248,1.015 0.07,0.698 0.069,0.307C0.07,-0.084 -0.247,-0.401 -0.639,-0.401" style="fill:rgb(222,165,159);fill-rule:nonzero;"/>
            </g>
            <g transform="matrix(0.433328,-0.901237,-0.901237,-0.433328,234.951,243.183)">
                <path d="M-0.639,-0.401C-1.03,-0.402 -1.347,-0.084 -1.347,0.306C-1.347,0.698 -1.03,1.015 -0.639,1.015C-0.248,1.015 0.07,0.698 0.069,0.307C0.069,-0.085 -0.247,-0.401 -0.639,-0.401" style="fill:rgb(222,165,159);fill-rule:nonzero;"/>
            </g>
            <g transform="matrix(0.433328,-0.901237,-0.901237,-0.433328,272.311,249.728)">
                <path d="M-0.639,-0.402C-1.031,-0.402 -1.348,-0.084 -1.348,0.307C-1.348,0.699 -1.03,1.016 -0.639,1.015C-0.247,1.015 0.069,0.699 0.069,0.307C0.07,-0.085 -0.247,-0.401 -0.639,-0.402" style="fill:rgb(222,165,159);fill-rule:nonzero;"/>
            </g>
            <g transform="matrix(0.433328,-0.901237,-0.901237,-0.433328,265.579,250.968)">
                <path d="M-0.639,-0.402C-1.031,-0.402 -1.348,-0.084 -1.347,0.307C-1.348,0.699 -1.03,1.016 -0.639,1.015C-0.248,1.014 0.069,0.699 0.069,0.307C0.07,-0.085 -0.247,-0.401 -0.639,-0.402" style="fill:rgb(222,165,159);fill-rule:nonzero;"/>
            </g>
            <g transform="matrix(0.433603,-0.901104,-0.901104,-0.433603,264.831,255.793)">
                <path d="M-0.638,-0.401C-1.029,-0.402 -1.347,-0.084 -1.346,0.307C-1.347,0.698 -1.029,1.016 -0.638,1.015C-0.247,1.016 0.07,0.699 0.07,0.307C0.07,-0.083 -0.246,-0.401 -0.638,-0.401" style="fill:rgb(222,165,159);fill-rule:nonzero;"/>
            </g>
            <g transform="matrix(0.433603,-0.901104,-0.901104,-0.433603,270.587,254.949)">
                <path d="M-0.638,-0.401C-1.029,-0.402 -1.347,-0.084 -1.346,0.307C-1.347,0.698 -1.029,1.016 -0.638,1.015C-0.247,1.016 0.07,0.699 0.07,0.307C0.07,-0.083 -0.246,-0.401 -0.638,-0.401" style="fill:rgb(222,165,159);fill-rule:nonzero;"/>
            </g>
            <g transform="matrix(1,0,0,1,243.121,250.73)">
                <path d="M0,-25.473C-1.037,-25.789 -2.13,-25.981 -3.261,-26.033C-10.592,-26.369 -16.829,-20.675 -17.168,-13.344C-17.5,-6.013 -11.808,0.234 -4.479,0.561C2.854,0.896 9.09,-4.797 9.428,-12.128C9.711,-18.327 5.685,-23.746 0,-25.473M-8.337,1.968C-14.897,-0.026 -19.547,-6.28 -19.22,-13.437C-18.831,-21.902 -11.63,-28.472 -3.168,-28.084C5.298,-27.698 11.867,-20.499 11.481,-12.035L11.48,-12.033C11.091,-3.572 3.892,2.999 -4.572,2.614C-5.878,2.553 -7.139,2.333 -8.337,1.968" style="fill:rgb(55,90,100);fill-rule:nonzero;"/>
            </g>
            <g transform="matrix(1,0,0,1,275.063,256.968)">
                <path d="M0,-26.398C-0.248,-26.473 -0.501,-26.535 -0.758,-26.581C-3.162,-27.014 -5.684,-26.106 -7.856,-24.023C-10.115,-21.855 -11.714,-18.702 -12.355,-15.145C-13.653,-7.92 -10.587,-1.296 -5.475,-0.381C-0.383,0.536 4.817,-4.597 6.12,-11.818C6.76,-15.376 6.362,-18.888 4.999,-21.71C3.831,-24.129 2.076,-25.767 0,-26.398M-6.817,1.405C-12.443,-0.305 -15.795,-7.617 -14.376,-15.507C-13.66,-19.489 -11.849,-23.041 -9.277,-25.504C-6.62,-28.056 -3.464,-29.156 -0.395,-28.604C2.688,-28.055 5.248,-25.919 6.851,-22.602C8.4,-19.394 8.858,-15.435 8.141,-11.456C6.639,-3.118 0.368,2.758 -5.837,1.642C-6.172,1.58 -6.497,1.502 -6.817,1.405" style="fill:rgb(55,90,100);fill-rule:nonzero;"/>
            </g>
            <g transform="matrix(-0.497071,-0.86771,-0.86771,0.497071,261.339,241.189)">
                <path d="M4.388,6.027L6.12,6.027C6.121,3.461 4.898,-1.444 0.273,-1.691L0.181,0.038C4.325,0.253 4.385,5.793 4.388,6.027" style="fill:rgb(55,90,100);fill-rule:nonzero;"/>
            </g>
            <g transform="matrix(1,0,0,1,191.801,226.315)">
                <path d="M0,6.29L-1.373,5.235C-0.879,4.595 3.548,-1.019 7.466,-0.952C11.126,-0.879 33.588,5.374 34.542,5.642L34.075,7.309C27.637,5.509 10.264,0.828 7.437,0.78C4.85,0.735 1.193,4.743 0,6.29" style="fill:rgb(55,90,100);fill-rule:nonzero;"/>
            </g>
            <g transform="matrix(-0.803288,-0.595591,-0.595591,0.803288,189.859,230.814)">
                <path d="M-17.379,-8.515C-17.379,-8.515 -2.793,-16.763 1.353,-10.986C5.497,-5.209 -9.603,9.637 -17.379,8.938C-25.152,8.239 -24.647,1.03 -24.647,1.03L-17.379,-8.515Z" style="fill:rgb(222,165,159);fill-rule:nonzero;"/>
            </g>
            <g transform="matrix(1,0,0,1,196.407,246.219)">
                <path d="M0,-19.062C-0.114,-19.095 -0.168,-18.937 -0.076,-18.877C4.563,-15.858 6.306,-10.675 7.221,-5.473C6.086,-7.627 4.246,-9.044 1.403,-7.748C1.254,-7.68 1.339,-7.449 1.487,-7.452C3.636,-7.493 5.054,-6.845 6.126,-4.923C6.885,-3.561 7.272,-1.951 7.717,-0.463C7.864,0.033 8.724,-0.051 8.653,-0.602C8.648,-0.643 8.64,-0.685 8.635,-0.727C10.01,-7.122 6.767,-17.076 0,-19.062" style="fill:rgb(26,46,53);fill-rule:nonzero;"/>
            </g>
        </g>
        <g id="Device" transform="matrix(1,0,0,1,0,0.490716)">
            <g transform="matrix(1,0,0,1,0,352.904)">
                <rect x="272.396" y="70.842" width="120.669" height="5.412" style="fill:rgb(55,90,100);"/>
            </g>
            <g transform="matrix(1,0,0,1,0,352.904)">
                <rect x="272.396" y="70.842" width="60.734" height="5.412" style="fill:rgb(168,168,168);"/>
            </g>
            <g transform="matrix(1,0,0,1,331.721,349.282)">
                <path d="M0,79.871L117.601,79.871L134.217,0L16.616,0L0,79.871Z" style="fill:rgb(200,200,200);fill-rule:nonzero;"/>
            </g>
            <g transform="matrix(0,1,1,0,397.552,383.164)">
                <path d="M7.838,-7.838C12.166,-8.293 15.676,-5.153 15.676,-0.824C15.676,3.505 12.166,7.383 7.838,7.838C3.509,8.293 0,5.152 0,0.823C0,-3.505 3.509,-7.384 7.838,-7.838" style="fill:white;fill-rule:nonzero;"/>
            </g>
        </g>
        <g id="Books" transform="matrix(1,0,0,1,0,0.490716)">
            <g transform="matrix(-1,0,0,1,218.32,344.63)">
                <rect x="58.939" y="71.742" width="100.442" height="11.886" style="fill:rgb(43,69,78);"/>
            </g>
            <g transform="matrix(-1,0,0,1,161.38,344.63)">
                <rect x="78.642" y="71.742" width="4.096" height="11.886" style="fill:rgb(55,90,100);"/>
            </g>
            <g transform="matrix(-1,0,0,1,285.31,344.63)">
                <rect x="137.748" y="71.742" width="9.814" height="11.886" style="fill:rgb(55,90,100);"/>
            </g>
            <g transform="matrix(1,0,0,1,101.701,424.549)">
                <path d="M0,-5.024L-2.4,-1.9C-2.454,-1.819 -2.539,-1.79 -2.614,-1.79L-2.636,-1.79C-2.732,-1.79 -2.807,-1.819 -2.86,-1.9L-5.26,-5.014L-5.26,0.763C-5.26,0.894 -5.378,1.004 -5.518,1.004C-5.667,1.004 -5.786,0.894 -5.786,0.763L-5.786,-5.747C-5.786,-5.828 -5.743,-5.898 -5.679,-5.938C-5.679,-5.948 -5.667,-5.948 -5.657,-5.959C-5.539,-6.028 -5.378,-6.008 -5.293,-5.898L-2.625,-2.432L0.032,-5.898C0.107,-6.008 0.278,-6.028 0.396,-5.959C0.428,-5.928 0.45,-5.909 0.471,-5.878C0.493,-5.837 0.515,-5.788 0.515,-5.747L0.515,0.763C0.515,0.894 0.396,1.004 0.257,1.004C0.107,1.004 0,0.894 0,0.763L0,-5.024Z" style="fill:white;fill-rule:nonzero;"/>
            </g>
            <g transform="matrix(1,0,0,1,105.135,420.863)">
                <path d="M0,2.379L3.032,2.379L1.521,-1.398L0,2.379ZM3.225,2.871L-0.193,2.871L-0.857,4.529C-0.9,4.63 -0.996,4.691 -1.103,4.691C-1.125,4.691 -1.167,4.681 -1.2,4.681C-1.329,4.63 -1.403,4.48 -1.35,4.358L1.254,-2.161C1.297,-2.252 1.404,-2.312 1.511,-2.312C1.629,-2.312 1.736,-2.252 1.768,-2.161L4.372,4.358C4.425,4.48 4.361,4.63 4.232,4.681C4.189,4.681 4.168,4.691 4.136,4.691C4.04,4.691 3.932,4.63 3.89,4.529L3.225,2.871Z" style="fill:white;fill-rule:nonzero;"/>
            </g>
            <g transform="matrix(1,0,0,1,112.043,425.062)">
                <path d="M0,-6.048L-2.261,-6.048C-2.4,-6.048 -2.518,-6.159 -2.518,-6.3C-2.518,-6.43 -2.4,-6.54 -2.261,-6.54L2.775,-6.54C2.914,-6.54 3.032,-6.43 3.032,-6.3C3.032,-6.159 2.914,-6.048 2.775,-6.048L0.514,-6.048L0.514,0.251C0.514,0.382 0.396,0.492 0.257,0.492C0.118,0.492 0,0.382 0,0.251L0,-6.048Z" style="fill:white;fill-rule:nonzero;"/>
            </g>
            <g transform="matrix(1,0,0,1,121.424,421.796)">
                <path d="M0,0.482L-3.857,0.482L-3.857,3.516C-3.857,3.647 -3.975,3.757 -4.125,3.757C-4.265,3.757 -4.382,3.647 -4.382,3.516L-4.382,-3.035C-4.382,-3.164 -4.265,-3.275 -4.125,-3.275C-3.975,-3.275 -3.857,-3.164 -3.857,-3.035L-3.857,0L0,0L0,-3.035C0,-3.164 0.118,-3.275 0.257,-3.275C0.407,-3.275 0.525,-3.164 0.525,-3.035L0.525,3.516C0.525,3.647 0.407,3.757 0.257,3.757C0.118,3.757 0,3.647 0,3.516L0,0.482Z" style="fill:white;fill-rule:nonzero;"/>
            </g>
            <g transform="matrix(-1,0,0,1,202.234,220.149)">
                <rect x="50.896" y="132.268" width="100.442" height="15.315" style="fill:rgb(130,190,0);"/>
            </g>
            <g transform="matrix(1,0,0,1,99.4858,357.969)">
                <path d="M0,4.492C0.085,4.391 0.235,4.382 0.332,4.462C0.889,4.884 1.821,5.376 2.796,5.366C3.45,5.366 4.039,5.184 4.446,4.903C4.864,4.622 5.089,4.25 5.089,3.858C5.089,3.457 4.885,3.155 4.479,2.894C4.071,2.643 3.471,2.453 2.743,2.321L2.722,2.321C2.025,2.201 1.414,2.02 0.954,1.728C0.493,1.447 0.183,1.025 0.183,0.504C0.183,-0.029 0.493,-0.491 0.964,-0.813C1.436,-1.135 2.068,-1.325 2.775,-1.325C3.76,-1.325 4.5,-0.873 5.089,-0.512C5.196,-0.442 5.229,-0.311 5.153,-0.2C5.089,-0.1 4.939,-0.07 4.833,-0.14C4.243,-0.501 3.6,-0.883 2.775,-0.883C2.164,-0.883 1.618,-0.713 1.243,-0.461C0.868,-0.2 0.654,0.141 0.654,0.504C0.665,0.854 0.835,1.116 1.211,1.357C1.586,1.597 2.143,1.769 2.818,1.889L2.839,1.889C3.589,2.02 4.253,2.221 4.746,2.533C5.239,2.834 5.571,3.296 5.571,3.858C5.571,4.421 5.229,4.924 4.725,5.265C4.221,5.606 3.546,5.817 2.796,5.817C1.65,5.807 0.654,5.265 0.032,4.804C-0.064,4.722 -0.075,4.582 0,4.492" style="fill:white;fill-rule:nonzero;"/>
            </g>
            <g transform="matrix(1,0,0,1,110.538,363.777)">
                <path d="M0,-7.133C0.922,-7.133 1.768,-6.832 2.422,-6.36C2.54,-6.269 2.561,-6.098 2.465,-6.008C2.379,-5.887 2.208,-5.878 2.101,-5.958C1.521,-6.379 0.793,-6.641 0,-6.641C-1.875,-6.641 -3.375,-5.265 -3.375,-3.546C-3.375,-1.869 -1.875,-0.492 0,-0.492C0.793,-0.492 1.521,-0.734 2.079,-1.176C2.208,-1.256 2.379,-1.236 2.454,-1.114C2.561,-1.025 2.54,-0.844 2.422,-0.764C1.768,-0.291 0.922,0 0,0C-2.153,0 -3.899,-1.588 -3.899,-3.546C-3.899,-5.546 -2.153,-7.123 0,-7.133" style="fill:white;fill-rule:nonzero;"/>
            </g>
            <g transform="matrix(1,0,0,1,115.301,363.535)">
                <path d="M0,-6.55C0,-6.681 0.118,-6.791 0.257,-6.791C0.407,-6.791 0.525,-6.681 0.525,-6.55L0.525,0.001C0.525,0.131 0.407,0.241 0.257,0.241C0.118,0.241 0,0.131 0,0.001L0,-6.55Z" style="fill:white;fill-rule:nonzero;"/>
            </g>
            <g transform="matrix(1,0,0,1,118.492,363.535)">
                <path d="M0,-6.55C0,-6.681 0.118,-6.791 0.257,-6.791L4.114,-6.791C4.264,-6.791 4.371,-6.681 4.371,-6.55C4.371,-6.41 4.264,-6.299 4.114,-6.299L0.525,-6.299L0.525,-3.516L3.664,-3.516C3.804,-3.516 3.921,-3.405 3.921,-3.265C3.921,-3.134 3.804,-3.024 3.664,-3.024L0.525,-3.024L0.525,-0.251L4.114,-0.251C4.264,-0.251 4.371,-0.141 4.371,0.001C4.371,0.131 4.264,0.241 4.114,0.241L0.235,0.241C0.107,0.231 0,0.131 0,0.001L0,-6.55Z" style="fill:white;fill-rule:nonzero;"/>
            </g>
            <g transform="matrix(1,0,0,1,125.388,362.741)">
                <path d="M0,-4.962L0,0.795C0,0.925 -0.118,1.035 -0.257,1.035C-0.396,1.035 -0.514,0.925 -0.514,0.795L-0.514,-5.655C-0.546,-5.756 -0.514,-5.857 -0.418,-5.927C-0.3,-5.997 -0.128,-5.978 -0.054,-5.866L4.489,0.04L4.489,-5.686C4.489,-5.816 4.607,-5.927 4.746,-5.927C4.896,-5.927 5.014,-5.816 5.014,-5.686L5.014,0.795C5.014,0.925 4.896,1.035 4.746,1.035C4.661,1.035 4.596,1.006 4.542,0.944C4.532,0.934 4.511,0.925 4.5,0.905L0,-4.962Z" style="fill:white;fill-rule:nonzero;"/>
            </g>
            <g transform="matrix(1,0,0,1,136.665,363.777)">
                <path d="M0,-7.133C0.922,-7.133 1.768,-6.832 2.421,-6.36C2.54,-6.269 2.561,-6.098 2.464,-6.008C2.378,-5.887 2.207,-5.878 2.101,-5.958C1.521,-6.379 0.793,-6.641 0,-6.641C-1.875,-6.641 -3.375,-5.265 -3.375,-3.546C-3.375,-1.869 -1.875,-0.492 0,-0.492C0.793,-0.492 1.521,-0.734 2.079,-1.176C2.207,-1.256 2.378,-1.236 2.454,-1.114C2.561,-1.025 2.54,-0.844 2.421,-0.764C1.768,-0.291 0.922,0 0,0C-2.154,0 -3.9,-1.588 -3.9,-3.546C-3.9,-5.546 -2.154,-7.123 0,-7.133" style="fill:white;fill-rule:nonzero;"/>
            </g>
            <g transform="matrix(1,0,0,1,141.353,363.535)">
                <path d="M0,-6.55C0,-6.681 0.118,-6.791 0.257,-6.791L4.114,-6.791C4.264,-6.791 4.371,-6.681 4.371,-6.55C4.371,-6.41 4.264,-6.299 4.114,-6.299L0.525,-6.299L0.525,-3.516L3.664,-3.516C3.804,-3.516 3.921,-3.405 3.921,-3.265C3.921,-3.134 3.804,-3.024 3.664,-3.024L0.525,-3.024L0.525,-0.251L4.114,-0.251C4.264,-0.251 4.371,-0.141 4.371,0.001C4.371,0.131 4.264,0.241 4.114,0.241L0.235,0.241C0.107,0.231 0,0.131 0,0.001L0,-6.55Z" style="fill:white;fill-rule:nonzero;"/>
            </g>
            <g transform="matrix(-1,0,0,1,143.944,220.149)">
                <rect x="59.351" y="132.268" width="25.242" height="15.315" style="fill:rgb(55,90,100);"/>
            </g>
            <g transform="matrix(-1,0,0,1,143.943,211.803)">
                <rect x="64.098" y="142.752" width="15.747" height="2.693" style="fill:rgb(107,19,169);"/>
            </g>
            <g transform="matrix(-1,0,0,1,143.943,220.151)">
                <rect x="64.098" y="138.578" width="15.747" height="2.693" style="fill:rgb(107,19,169);"/>
            </g>
            <g transform="matrix(-1,0,0,1,143.943,228.498)">
                <rect x="64.098" y="134.404" width="15.747" height="2.694" style="fill:rgb(107,19,169);"/>
            </g>
            <g transform="matrix(-1,0,0,1,212.032,251.171)">
                <rect x="54.722" y="116.561" width="102.588" height="15.707" style="fill:rgb(43,69,78);"/>
            </g>
            <g transform="matrix(-1,0,0,1,253.683,251.172)">
                <rect x="114.522" y="121.656" width="24.639" height="5.516" style="fill:rgb(107,19,169);"/>
            </g>
            <g transform="matrix(0,-1,-1,0,148.265,372.334)">
                <path d="M-3.252,-3.252C-4.937,-3.252 -6.302,-1.796 -6.302,0C-6.302,1.796 -4.937,3.252 -3.252,3.252C-1.567,3.252 -0.202,1.796 -0.202,0C-0.202,-1.796 -1.567,-3.252 -3.252,-3.252" style="fill:rgb(107,19,169);fill-rule:nonzero;"/>
            </g>
            <g transform="matrix(1,0,0,1,64.2905,378.583)">
                <path d="M0,-6.55C0,-6.681 0.118,-6.791 0.257,-6.791L4.114,-6.791C4.264,-6.791 4.371,-6.681 4.371,-6.55C4.371,-6.41 4.264,-6.299 4.114,-6.299L0.525,-6.299L0.525,-3.516L3.664,-3.516C3.804,-3.516 3.921,-3.405 3.921,-3.265C3.921,-3.134 3.804,-3.024 3.664,-3.024L0.525,-3.024L0.525,-0.251L4.114,-0.251C4.264,-0.251 4.371,-0.141 4.371,0.001C4.371,0.131 4.264,0.241 4.114,0.241L0.235,0.241C0.107,0.231 0,0.131 0,0.001L0,-6.55Z" style="fill:white;fill-rule:nonzero;"/>
            </g>
            <g transform="matrix(1,0,0,1,71.1865,377.789)">
                <path d="M0,-4.962L0,0.795C0,0.925 -0.118,1.035 -0.257,1.035C-0.396,1.035 -0.514,0.925 -0.514,0.795L-0.514,-5.655C-0.546,-5.756 -0.514,-5.857 -0.418,-5.927C-0.3,-5.997 -0.128,-5.978 -0.054,-5.866L4.489,0.04L4.489,-5.686C4.489,-5.816 4.607,-5.927 4.746,-5.927C4.896,-5.927 5.014,-5.816 5.014,-5.686L5.014,0.795C5.014,0.925 4.896,1.035 4.746,1.035C4.661,1.035 4.596,1.005 4.542,0.944C4.532,0.934 4.511,0.925 4.5,0.904L0,-4.962Z" style="fill:white;fill-rule:nonzero;"/>
            </g>
            <g transform="matrix(1,0,0,1,81.8643,374.855)">
                <path d="M0,0.805C-0.15,0.805 -0.268,0.704 -0.268,0.564C-0.268,0.422 -0.15,0.313 0,0.313L2.346,0.313C2.475,0.323 2.582,0.432 2.582,0.564L2.582,3.015C2.571,3.085 2.539,3.156 2.485,3.196C1.821,3.688 0.985,3.969 0.064,3.969C-2.09,3.959 -3.836,2.381 -3.836,0.393C-3.836,-1.566 -2.09,-3.164 0.064,-3.164C0.996,-3.164 1.821,-2.863 2.496,-2.37C2.593,-2.3 2.625,-2.129 2.528,-2.028C2.442,-1.927 2.282,-1.909 2.153,-1.989C1.607,-2.411 0.868,-2.672 0.064,-2.672C-1.811,-2.672 -3.311,-1.296 -3.311,0.393C-3.311,2.1 -1.811,3.477 0.064,3.477C0.792,3.477 1.489,3.256 2.046,2.873L2.046,0.805L0,0.805Z" style="fill:white;fill-rule:nonzero;"/>
            </g>
            <g transform="matrix(1,0,0,1,86.8203,371.792)">
                <path d="M3.835,7.032L-0.022,7.032C-0.161,7.032 -0.279,6.922 -0.279,6.792L-0.279,0.241C-0.279,0.11 -0.161,0 -0.022,0C0.128,0 0.246,0.11 0.246,0.241L0.246,6.54L3.835,6.54C3.985,6.54 4.103,6.65 4.103,6.792C4.103,6.922 3.985,7.032 3.835,7.032Z" style="fill:white;fill-rule:nonzero;"/>
            </g>
            <g transform="matrix(1,0,0,1,92.6978,378.583)">
                <path d="M0,-6.55C0,-6.681 0.118,-6.791 0.257,-6.791C0.407,-6.791 0.525,-6.681 0.525,-6.55L0.525,0.001C0.525,0.131 0.407,0.241 0.257,0.241C0.118,0.241 0,0.131 0,0.001L0,-6.55Z" style="fill:white;fill-rule:nonzero;"/>
            </g>
            <g transform="matrix(1,0,0,1,95.5454,373.017)">
                <path d="M0,4.492C0.086,4.391 0.236,4.382 0.332,4.462C0.89,4.884 1.822,5.376 2.796,5.366C3.45,5.366 4.04,5.185 4.446,4.903C4.864,4.622 5.089,4.25 5.089,3.858C5.089,3.457 4.886,3.155 4.479,2.894C4.071,2.643 3.472,2.453 2.743,2.321L2.722,2.321C2.025,2.201 1.415,2.02 0.954,1.728C0.493,1.447 0.183,1.025 0.183,0.504C0.183,-0.029 0.493,-0.491 0.965,-0.813C1.436,-1.135 2.068,-1.325 2.775,-1.325C3.761,-1.325 4.5,-0.873 5.089,-0.512C5.196,-0.442 5.229,-0.311 5.154,-0.2C5.089,-0.1 4.939,-0.07 4.833,-0.14C4.243,-0.501 3.601,-0.883 2.775,-0.883C2.165,-0.883 1.618,-0.713 1.243,-0.462C0.868,-0.2 0.654,0.141 0.654,0.504C0.665,0.854 0.836,1.116 1.211,1.357C1.586,1.597 2.143,1.769 2.818,1.889L2.839,1.889C3.589,2.02 4.253,2.221 4.747,2.533C5.239,2.834 5.571,3.296 5.571,3.858C5.571,4.421 5.229,4.924 4.725,5.265C4.222,5.606 3.547,5.817 2.796,5.817C1.65,5.807 0.654,5.265 0.033,4.803C-0.064,4.722 -0.075,4.582 0,4.492" style="fill:white;fill-rule:nonzero;"/>
            </g>
            <g transform="matrix(1,0,0,1,107.413,375.066)">
                <path d="M0,0.484L-3.857,0.484L-3.857,3.518C-3.857,3.648 -3.975,3.758 -4.125,3.758C-4.264,3.758 -4.382,3.648 -4.382,3.518L-4.382,-3.033C-4.382,-3.163 -4.264,-3.274 -4.125,-3.274C-3.975,-3.274 -3.857,-3.163 -3.857,-3.033L-3.857,0.002L0,0.002L0,-3.033C0,-3.163 0.118,-3.274 0.257,-3.274C0.407,-3.274 0.525,-3.163 0.525,-3.033L0.525,3.518C0.525,3.648 0.407,3.758 0.257,3.758C0.118,3.758 0,3.648 0,3.518L0,0.484Z" style="fill:white;fill-rule:nonzero;"/>
            </g>
            <g transform="matrix(-1,0,0,1,152.252,280.745)">
                <rect x="50.213" y="102.695" width="51.826" height="13.865" style="fill:rgb(26,46,53);"/>
            </g>
            <g transform="matrix(-1,0,0,1,251.986,280.745)">
                <rect x="102.039" y="102.695" width="47.908" height="13.865" style="fill:rgb(26,46,53);"/>
            </g>
            <g transform="matrix(-1,0,0,1,152.252,280.743)">
                <rect x="50.213" y="104.135" width="51.826" height="10.987" style="fill:white;"/>
            </g>
            <g transform="matrix(1,0,0,1,54.7222,387.139)">
                <path d="M0,0C5.43,-0.077 10.86,-0.133 16.291,-0.16L23.658,-0.209L39.949,-0.161C45.379,-0.133 41.887,-0.078 47.317,0C41.887,0.077 45.379,0.133 39.949,0.16L23.658,0.209L16.291,0.16C10.86,0.132 5.43,0.076 0,0" style="fill:rgb(220,220,220);fill-rule:nonzero;"/>
            </g>
            <g transform="matrix(1,0,0,1,54.7222,389.294)">
                <path d="M0,0C5.43,-0.076 10.86,-0.132 16.291,-0.16L23.658,-0.209L39.949,-0.161C45.379,-0.133 41.887,-0.077 47.317,0C41.887,0.077 45.379,0.133 39.949,0.161L23.658,0.209L16.291,0.16C10.86,0.132 5.43,0.077 0,0" style="fill:rgb(220,220,220);fill-rule:nonzero;"/>
            </g>
            <g transform="matrix(1,0,0,1,54.7222,391.449)">
                <path d="M0,0C5.43,-0.076 10.86,-0.132 16.291,-0.16L23.658,-0.209L39.949,-0.16C45.379,-0.133 41.887,-0.077 47.317,0C41.887,0.078 45.379,0.133 39.949,0.161L23.658,0.209L16.291,0.16C10.86,0.133 5.43,0.077 0,0" style="fill:rgb(220,220,220);fill-rule:nonzero;"/>
            </g>
            <g transform="matrix(1,0,0,1,54.7222,393.606)">
                <path d="M0,0C5.43,-0.077 10.86,-0.133 16.291,-0.16L23.658,-0.209L39.949,-0.161C45.379,-0.133 41.887,-0.078 47.317,0C41.887,0.077 45.379,0.133 39.949,0.16L23.658,0.209L16.291,0.16C10.86,0.132 5.43,0.076 0,0" style="fill:rgb(220,220,220);fill-rule:nonzero;"/>
            </g>
            <g transform="matrix(-1,0,0,1,232.051,280.745)">
                <rect x="112.653" y="102.695" width="6.745" height="13.865" style="fill:rgb(55,90,100);"/>
            </g>
            <g transform="matrix(-1,0,0,1,290.404,280.745)">
                <rect x="142.935" y="102.695" width="4.534" height="13.865" style="fill:rgb(55,90,100);"/>
            </g>
            <g transform="matrix(1,0,0,1,0,313.666)">
                <rect x="89.555" y="83.639" width="58.369" height="19.056" style="fill:rgb(107,19,169);"/>
            </g>
            <g transform="matrix(1,0,0,1,0,313.666)">
                <rect x="45.234" y="83.639" width="44.32" height="19.056" style="fill:rgb(107,19,169);"/>
            </g>
            <g transform="matrix(1,0,0,1,0,313.665)">
                <rect x="89.555" y="85.617" width="58.369" height="15.101" style="fill:white;"/>
            </g>
            <g transform="matrix(1,0,0,1,144.146,411.276)">
                <path d="M0,0C-4.549,0.076 -9.099,0.132 -13.648,0.16L-27.296,0.209L-40.943,0.161C-45.493,0.133 -50.042,0.077 -54.591,0C-50.042,-0.077 -45.493,-0.133 -40.943,-0.161L-27.296,-0.209L-13.648,-0.16C-9.099,-0.133 -4.549,-0.077 0,0" style="fill:rgb(220,220,220);fill-rule:nonzero;"/>
            </g>
            <g transform="matrix(1,0,0,1,144.146,408.313)">
                <path d="M0,0C-4.549,0.077 -9.099,0.133 -13.648,0.16L-27.296,0.209L-40.943,0.161C-45.493,0.133 -50.042,0.078 -54.591,0C-50.042,-0.077 -45.493,-0.133 -40.943,-0.161L-27.296,-0.209L-13.648,-0.16C-9.099,-0.132 -4.549,-0.076 0,0" style="fill:rgb(220,220,220);fill-rule:nonzero;"/>
            </g>
            <g transform="matrix(1,0,0,1,144.146,405.352)">
                <path d="M0,0C-4.549,0.076 -9.099,0.132 -13.648,0.16L-27.296,0.209L-40.943,0.16C-45.493,0.133 -50.042,0.077 -54.591,0C-50.042,-0.078 -45.493,-0.133 -40.943,-0.161L-27.296,-0.209L-13.648,-0.16C-9.099,-0.133 -4.549,-0.077 0,0" style="fill:rgb(220,220,220);fill-rule:nonzero;"/>
            </g>
            <g transform="matrix(1,0,0,1,144.146,402.389)">
                <path d="M0,0C-4.549,0.076 -9.099,0.133 -13.648,0.16L-27.296,0.209L-40.943,0.161C-45.493,0.133 -50.042,0.077 -54.591,0C-50.042,-0.077 -45.493,-0.133 -40.943,-0.161L-27.296,-0.209L-13.648,-0.16C-9.099,-0.132 -4.549,-0.076 0,0" style="fill:rgb(220,220,220);fill-rule:nonzero;"/>
            </g>
            <g transform="matrix(-1,0,0,1,112.884,313.664)">
                <rect x="52.294" y="83.64" width="8.296" height="19.056" style="fill:rgb(55,90,100);"/>
            </g>
        </g>
    </g>
</svg>
