<?xml version="1.0" encoding="UTF-8" standalone="no"?>
<!DOCTYPE svg PUBLIC "-//W3C//DTD SVG 1.1//EN" "http://www.w3.org/Graphics/SVG/1.1/DTD/svg11.dtd">
<svg width="100%" height="100%" viewBox="0 0 300 300" version="1.1" xmlns="http://www.w3.org/2000/svg" xmlns:xlink="http://www.w3.org/1999/xlink" xml:space="preserve" xmlns:serif="http://www.serif.com/" style="fill-rule:evenodd;clip-rule:evenodd;stroke-linejoin:round;stroke-miterlimit:2;">
    <g id="ArtBoard1" transform="matrix(0.993368,0,0,1,0,0)">
        <rect x="0" y="0" width="359.947" height="300" style="fill:none;"/>
        <clipPath id="_clip1">
            <rect x="0" y="0" width="359.947" height="300"/>
        </clipPath>
        <g clip-path="url(#_clip1)">
            <g id="Artboard1" transform="matrix(1.02723,0,0,1.02046,-6.26691,-6.90232)">
                <rect x="6.101" y="6.764" width="293.899" height="293.236" style="fill:none;"/>
                <clipPath id="_clip2">
                    <rect x="6.101" y="6.764" width="293.899" height="293.236"/>
                </clipPath>
                <g clip-path="url(#_clip2)">
                    <g id="Logo" transform="matrix(0.979993,0,0,0.979949,6.1008,6.76393)">
                        <rect x="0" y="0" width="300" height="300" style="fill:rgb(150,189,2);"/>
                        <g transform="matrix(1,0,0,1,-17.5605,-3.25)">
                            <g transform="matrix(216.667,0,0,216.667,150.111,115)">
                            </g>
                            <text x="41.777px" y="115px" style="font-family:'Ubuntu-Regular', 'Ubuntu';font-size:216.667px;fill:white;">J</text>
                        </g>
                        <g transform="matrix(1,0,0,1,130.656,223.617)">
                            <path d="M134.596,117.849C131.939,118.116 129.238,118.25 126.494,118.25C116.672,118.25 107.391,116.589 98.652,113.267C89.913,109.944 82.258,104.997 75.686,98.425C69.113,91.853 63.913,83.656 60.086,73.833C56.258,64.011 54.344,52.672 54.344,39.817C54.344,26.961 56.258,15.622 60.086,5.8C63.913,-4.022 69.113,-12.219 75.686,-18.792C82.258,-25.364 89.913,-30.311 98.652,-33.633C107.391,-36.956 116.672,-38.617 126.494,-38.617C136.172,-38.617 145.308,-36.956 153.902,-33.633C159.492,-31.472 164.64,-28.624 169.344,-25.088L169.344,7.911C167.372,3.462 164.97,-0.491 162.136,-3.95C157.874,-9.15 152.711,-13.158 146.644,-15.975C140.577,-18.792 133.716,-20.2 126.061,-20.2C118.405,-20.2 111.508,-18.792 105.369,-15.975C99.23,-13.158 94.03,-9.15 89.769,-3.95C85.508,1.25 82.222,7.569 79.911,15.008C77.599,22.447 76.444,30.717 76.444,39.817C76.444,48.917 77.599,57.186 79.911,64.625C82.222,72.064 85.508,78.383 89.769,83.583C94.03,88.783 99.23,92.792 105.369,95.608C111.508,98.425 118.405,99.833 126.061,99.833C129.025,99.833 131.87,99.622 134.596,99.2L134.596,117.849Z" style="fill:white;"/>
                        </g>
                    </g>
                </g>
            </g>
        </g>
    </g>
</svg>
